<svg xmlns="http://www.w3.org/2000/svg" x="0px" y="0px" width="100" height="100" viewBox="0 0 50 50">
    <path
        d="M 37.935547 3.0058594 C 35.613789 3.0058594 33.292935 3.8887051 31.527344 5.6542969 L 24.298828 12.884766 L 22.410156 10.996094 L 26.707031 6.7070312 A 1.0001 1.0001 0 0 0 25.980469 4.9902344 A 1.0001 1.0001 0 0 0 25.292969 5.2929688 L 14.021484 16.542969 C 11.119802 19.444651 9.804159 23.333668 10.048828 27.134766 L 7.7304688 29.453125 A 1.0001 1.0001 0 0 0 7.2753906 30.248047 L 3.0351562 45.736328 A 1.0001 1.0001 0 0 0 4.2636719 46.964844 L 19.921875 42.677734 A 1.0005309 1.0005309 0 0 0 19.966797 42.666016 A 1.0001 1.0001 0 0 0 19.970703 42.664062 A 1.0005309 1.0005309 0 0 0 20.058594 42.634766 A 1.0005309 1.0005309 0 0 0 20.0625 42.634766 A 1.0001 1.0001 0 0 0 20.066406 42.632812 A 1.0005309 1.0005309 0 0 0 20.152344 42.59375 A 1.0005309 1.0005309 0 0 0 20.226562 42.552734 A 1.0005309 1.0005309 0 0 0 20.240234 42.544922 A 1.0001 1.0001 0 0 0 20.255859 42.533203 A 1.0005309 1.0005309 0 0 0 20.320312 42.486328 A 1.0005309 1.0005309 0 0 0 20.396484 42.419922 A 1.0001 1.0001 0 0 0 20.408203 42.408203 L 20.433594 42.384766 A 1.0005309 1.0005309 0 0 0 20.443359 42.373047 L 22.882812 39.933594 C 26.670608 40.16572 30.541498 38.84848 33.433594 35.957031 L 44.707031 24.707031 A 1.0001 1.0001 0 0 0 43.980469 22.990234 A 1.0001 1.0001 0 0 0 43.292969 23.292969 L 38.996094 27.582031 L 37.115234 25.701172 L 44.345703 18.472656 C 47.877947 14.941533 47.877947 9.1854196 44.345703 5.6542969 C 42.580111 3.8887051 40.257304 3.0058594 37.935547 3.0058594 z M 37.935547 4.9941406 C 39.741289 4.9941406 41.548232 5.6849511 42.931641 7.0683594 C 45.699397 9.8352366 45.699397 14.291717 42.931641 17.058594 L 35.701172 24.287109 L 34.746094 23.332031 A 1.5 1.5 0 0 0 33.5 21 A 1.5 1.5 0 0 0 32.666016 21.251953 L 28.746094 17.332031 A 1.5 1.5 0 0 0 27.5 15 A 1.5 1.5 0 0 0 26.666016 15.251953 L 25.712891 14.298828 L 32.941406 7.0683594 C 34.324815 5.6849511 36.129804 4.9941406 37.935547 4.9941406 z M 35.5 7 A 1.5 1.5 0 0 0 35.5 10 A 1.5 1.5 0 0 0 35.5 7 z M 40.5 8 A 1.5 1.5 0 0 0 40.5 11 A 1.5 1.5 0 0 0 40.5 8 z M 31.5 11 A 1.5 1.5 0 0 0 31.5 14 A 1.5 1.5 0 0 0 31.5 11 z M 36.5 12 A 1.5 1.5 0 0 0 36.5 15 A 1.5 1.5 0 0 0 36.5 12 z M 20.994141 12.408203 L 22.884766 14.298828 L 21.298828 15.884766 L 19.40625 13.992188 L 20.994141 12.408203 z M 41.5 13 A 1.5 1.5 0 0 0 41.5 16 A 1.5 1.5 0 0 0 41.5 13 z M 17.992188 15.40625 L 19.884766 17.298828 L 12.068359 25.115234 C 12.319065 22.503215 13.431262 19.961316 15.435547 17.957031 L 17.992188 15.40625 z M 24.298828 15.712891 L 34.287109 25.701172 L 32.701172 27.287109 L 30.849609 25.435547 A 1.0001 1.0001 0 0 0 30.558594 25.146484 L 24.824219 19.410156 A 1.0001 1.0001 0 0 0 24.59375 19.179688 L 22.712891 17.298828 L 24.298828 15.712891 z M 32.5 16 A 1.5 1.5 0 0 0 32.5 19 A 1.5 1.5 0 0 0 32.5 16 z M 37.5 17 A 1.5 1.5 0 0 0 37.5 20 A 1.5 1.5 0 0 0 37.5 17 z M 21.298828 18.712891 L 22.585938 20 L 12.640625 29.945312 C 12.446455 29.94258 11.623698 29.935129 10.304688 29.707031 L 11.71875 28.291016 A 1.0001 1.0001 0 0 0 11.826172 28.185547 L 21.298828 18.712891 z M 24 21.414062 L 28.585938 26 L 18.681641 35.904297 C 18.197418 35.825417 16.98324 35.569177 15.707031 34.292969 C 14.430823 33.01676 14.174584 31.802582 14.095703 31.318359 L 24 21.414062 z M 35.701172 27.115234 L 37.580078 28.994141 L 35.992188 30.578125 L 34.115234 28.701172 L 35.701172 27.115234 z M 30 27.414062 L 31.287109 28.701172 L 21.894531 38.09375 A 1.0001 1.0001 0 0 0 21.638672 38.349609 A 1.0001 1.0001 0 0 0 21.632812 38.357422 L 20.240234 39.748047 C 20.177237 39.367636 20.116531 38.978183 20.083984 38.621094 C 20.020814 37.927999 20.023311 37.632291 20.019531 37.394531 L 30 27.414062 z M 32.701172 30.115234 L 34.578125 31.992188 L 32.021484 34.542969 C 30.027665 36.536788 27.502714 37.65061 24.90625 37.910156 L 32.701172 30.115234 z M 9.0117188 31.482422 C 10.724051 31.850727 11.728121 31.866735 12.193359 31.880859 C 12.357814 32.710531 12.756064 34.170126 14.292969 35.707031 C 15.776786 37.190849 17.177161 37.604126 18.041016 37.787109 C 18.050816 38.115604 18.039917 38.234027 18.091797 38.802734 C 18.1536 39.480812 18.255986 40.25659 18.441406 41.009766 L 9.4316406 43.476562 C 8.8356788 42.193696 7.8058894 41.162826 6.5234375 40.566406 L 9.0117188 31.482422 z M 5.9863281 42.529297 C 6.6032123 42.883556 7.1168351 43.396537 7.4707031 44.013672 L 5.4277344 44.572266 L 5.9863281 42.529297 z">
    </path>
</svg>